<mxfile host="app.diagrams.net" modified="2024-01-26T10:10:42.316Z" agent="Mozilla/5.0 (Windows NT 10.0; Win64; x64) AppleWebKit/537.36 (KHTML, like Gecko) Chrome/121.0.0.0 Safari/537.36" etag="BmI9U2lj6lIo4UGGSuBR" version="23.0.2" type="device">
  <diagram name="Seite-1" id="O_4wCDEqzk9bSWWXkRYb">
    <mxGraphModel dx="1434" dy="754" grid="1" gridSize="10" guides="1" tooltips="1" connect="1" arrows="1" fold="1" page="1" pageScale="1" pageWidth="1169" pageHeight="827" background="none" math="0" shadow="0">
      <root>
        <mxCell id="0" />
        <mxCell id="1" parent="0" />
        <mxCell id="RtUKa8b20gI8V9hl9e8P-1" value="&lt;font style=&quot;font-size: 20px;&quot;&gt;GUI&lt;/font&gt;" style="ellipse;whiteSpace=wrap;html=1;fillColor=#ffe6cc;strokeColor=#d79b00;" vertex="1" parent="1">
          <mxGeometry x="270" y="334" width="160" height="96" as="geometry" />
        </mxCell>
        <mxCell id="RtUKa8b20gI8V9hl9e8P-2" value="&lt;font style=&quot;font-size: 20px;&quot;&gt;STM32&lt;/font&gt;" style="ellipse;whiteSpace=wrap;html=1;fillColor=#cce5ff;strokeColor=#36393d;" vertex="1" parent="1">
          <mxGeometry x="700" y="334" width="160" height="96" as="geometry" />
        </mxCell>
        <mxCell id="RtUKa8b20gI8V9hl9e8P-4" value="" style="shape=flexArrow;endArrow=classic;startArrow=classic;html=1;rounded=0;entryX=0;entryY=0.5;entryDx=0;entryDy=0;exitX=1;exitY=0.5;exitDx=0;exitDy=0;" edge="1" parent="1" source="RtUKa8b20gI8V9hl9e8P-1" target="RtUKa8b20gI8V9hl9e8P-2">
          <mxGeometry width="100" height="100" relative="1" as="geometry">
            <mxPoint x="470" y="382" as="sourcePoint" />
            <mxPoint x="630" y="381.5" as="targetPoint" />
            <Array as="points">
              <mxPoint x="530" y="381.5" />
            </Array>
          </mxGeometry>
        </mxCell>
        <mxCell id="RtUKa8b20gI8V9hl9e8P-6" value="&lt;font style=&quot;font-size: 17px;&quot;&gt;UART&lt;/font&gt;" style="text;html=1;align=center;verticalAlign=middle;resizable=0;points=[];autosize=1;strokeColor=none;fillColor=none;" vertex="1" parent="1">
          <mxGeometry x="530" y="340" width="70" height="30" as="geometry" />
        </mxCell>
      </root>
    </mxGraphModel>
  </diagram>
</mxfile>
